{"glyphs":{"0":{"ha":1082,"x_min":43,"x_max":1042,"o":"m 43 706 q 94 955 43 854 q 256 1108 144 1056 q 546 1161 368 1161 q 756 1136 665 1161 q 911 1057 847 1111 q 1008 916 975 1003 q 1042 708 1042 830 q 1010 461 1042 589 q 917 222 979 333 q 759 43 854 112 q 543 -25 665 -25 q 338 35 432 -25 q 179 199 245 95 q 78 434 114 302 q 43 706 43 567 m 353 683 q 379 486 353 586 q 449 322 405 387 q 543 258 493 258 q 643 329 600 258 q 709 500 686 399 q 732 683 732 601 q 680 846 732 796 q 546 896 628 896 q 440 875 484 896 q 375 807 397 853 q 353 683 353 760 z "},"1":{"ha":583,"x_min":-14,"x_max":469,"o":"m 57 1136 l 469 1136 l 469 0 l 174 0 l 174 882 l -14 882 l 57 1136 z "},"2":{"ha":806,"x_min":-28,"x_max":757,"o":"m -28 0 l 358 749 q 390 833 390 815 q 365 872 390 864 q 279 879 340 879 l 29 879 l 100 1136 l 455 1136 q 604 1108 542 1136 q 696 1027 665 1079 q 726 908 726 975 q 707 795 726 844 q 643 657 688 747 l 436 256 l 757 256 l 689 0 l -28 0 z "},"3":{"ha":833,"x_min":5,"x_max":786,"o":"m 5 256 l 296 256 l 329 256 q 415 268 382 256 q 447 322 447 281 q 179 597 447 411 l 328 711 q 391 772 367 740 q 415 828 415 804 q 401 863 415 852 q 361 877 387 874 q 276 879 334 879 l 25 879 l 92 1136 l 421 1136 q 592 1111 518 1136 q 709 1026 666 1085 q 751 873 751 968 q 729 770 751 818 q 675 686 707 722 q 594 606 643 650 q 707 496 666 548 q 767 392 748 444 q 786 282 786 339 q 704 81 786 161 q 467 0 621 0 l 76 0 l 5 256 z "},"4":{"ha":890,"x_min":22,"x_max":871,"o":"m 512 504 l 512 720 l 760 720 l 760 504 l 871 504 l 871 247 l 760 247 l 760 0 l 512 0 l 512 247 l 22 247 l 22 475 l 307 1136 l 621 1136 l 347 504 l 512 504 z "},"5":{"ha":833,"x_min":71,"x_max":779,"o":"m 71 256 q 268 275 176 256 q 414 334 359 294 q 469 432 469 374 q 428 509 469 492 q 310 526 386 526 l 271 526 l 74 526 l 105 1136 l 663 1136 l 732 879 l 375 879 l 370 765 l 458 765 q 624 735 552 765 q 737 637 695 706 q 779 458 779 568 q 730 253 779 340 q 593 109 680 165 q 390 27 505 53 q 142 0 274 0 l 71 256 z "},"6":{"ha":917,"x_min":32,"x_max":896,"o":"m 32 367 q 130 739 32 545 q 375 1136 228 933 l 720 1136 q 475 760 590 959 q 683 716 587 760 q 838 586 780 672 q 896 379 896 499 q 872 225 896 296 q 795 96 847 153 q 657 7 742 40 q 455 -25 573 -25 q 255 8 338 -25 q 124 97 173 40 q 53 222 75 153 q 32 367 32 291 m 364 515 q 331 385 331 446 q 367 280 331 323 q 467 236 404 236 q 565 277 533 236 q 597 370 597 318 q 544 478 597 441 q 407 515 491 515 l 364 515 z "},"7":{"ha":749,"x_min":8,"x_max":773,"o":"m 79 1136 l 773 1136 l 426 0 l 117 0 l 388 879 l 8 879 l 79 1136 z "},"8":{"ha":944,"x_min":54,"x_max":890,"o":"m 54 279 q 77 398 54 343 q 133 493 100 453 q 199 560 166 532 q 250 603 231 587 q 117 742 152 681 q 82 879 82 804 q 173 1090 82 1018 q 472 1161 263 1161 q 706 1125 620 1161 q 828 1026 793 1088 q 863 879 863 964 q 823 735 863 794 q 694 603 784 675 q 845 445 800 519 q 890 279 890 370 q 851 116 890 184 q 719 12 811 49 q 475 -25 627 -25 q 162 45 271 -25 q 54 279 54 116 m 472 746 q 558 860 558 808 q 472 917 558 917 q 379 860 379 917 q 472 746 379 806 m 472 447 q 353 299 353 360 q 385 252 353 271 q 472 233 417 233 q 559 251 526 233 q 592 301 592 270 q 472 447 592 363 z "},"9":{"ha":917,"x_min":17,"x_max":896,"o":"m 139 256 q 343 287 263 261 q 478 370 424 313 q 287 423 372 387 q 141 515 202 459 q 48 643 80 570 q 17 806 17 716 q 69 997 17 917 q 217 1119 121 1078 q 436 1161 312 1161 q 896 722 896 1161 q 859 486 896 611 q 745 250 823 362 q 544 69 668 139 q 253 -3 419 -2 q 231 -1 244 -3 q 208 0 217 0 l 139 256 m 325 786 q 363 699 325 735 q 460 643 402 663 q 578 615 517 623 q 597 738 597 663 q 556 851 597 810 q 450 893 515 893 q 356 862 388 893 q 325 786 325 831 z "},"\"":{"ha":1042,"x_min":174,"x_max":868,"o":"m 174 0 l 174 868 l 868 868 l 868 0 l 174 0 m 846 22 l 846 846 l 196 846 l 196 22 l 846 22 z "}," ":{"ha":486,"x_min":0,"x_max":0,"o":""},"!":{"ha":555,"x_min":131,"x_max":424,"o":"m 424 1136 l 424 325 l 131 325 l 131 1136 l 424 1136 m 424 256 l 424 0 l 131 0 l 131 256 l 424 256 z "},"$":{"ha":833,"x_min":54,"x_max":786,"o":"m 65 256 l 333 256 q 418 263 392 256 q 445 293 445 270 q 437 321 445 308 q 418 348 430 335 q 396 372 406 361 l 196 600 q 112 704 141 662 q 68 787 83 746 q 54 873 54 828 q 88 1005 54 950 q 175 1090 122 1060 q 288 1131 227 1120 l 288 1250 l 535 1250 l 535 1136 l 681 1136 l 751 879 l 502 879 l 469 879 q 390 840 390 879 q 396 817 390 827 q 414 792 401 806 q 439 763 426 778 l 649 532 q 750 400 715 461 q 786 262 786 338 q 756 136 786 192 q 670 46 727 80 q 535 5 614 13 l 535 -136 l 288 -136 l 288 0 l 136 0 l 65 256 z "},"%":{"ha":1611,"x_min":32,"x_max":1579,"o":"m 521 0 l 906 1136 l 1069 1136 l 683 0 l 521 0 m 236 885 q 250 775 236 834 q 290 674 264 715 q 347 632 316 632 q 407 671 381 632 q 447 769 433 710 q 461 885 461 827 q 350 1001 461 1001 q 236 885 236 998 m 1150 401 q 1166 291 1152 351 q 1205 190 1180 232 q 1264 149 1231 149 q 1322 188 1296 149 q 1361 285 1347 227 q 1375 401 1375 344 q 1264 518 1375 518 q 1150 401 1150 514 m 32 893 q 54 1018 32 970 q 119 1104 76 1065 q 350 1161 195 1161 q 476 1148 420 1161 q 575 1106 533 1136 q 641 1022 617 1076 q 665 890 665 969 q 642 733 665 811 q 578 593 620 654 q 477 495 536 531 q 350 458 419 458 q 179 524 251 458 q 69 691 107 590 q 32 893 32 792 m 950 410 q 971 536 950 488 q 1036 621 993 585 q 1264 678 1104 678 q 1429 654 1359 678 q 1539 570 1498 630 q 1579 407 1579 510 q 1540 200 1579 300 q 1428 37 1501 100 q 1264 -25 1356 -25 q 1095 41 1166 -25 q 987 207 1023 106 q 950 410 950 308 z "},"&":{"ha":1113,"x_min":54,"x_max":1044,"o":"m 54 276 q 111 471 54 385 q 256 615 168 557 q 177 691 211 653 q 123 775 143 730 q 103 873 103 821 q 436 1136 103 1136 l 814 1136 l 885 879 l 578 879 l 539 879 q 462 870 485 879 q 439 828 439 861 q 507 726 439 783 l 675 597 q 474 464 559 538 q 388 322 389 390 q 422 268 388 281 q 518 256 456 256 l 689 256 l 689 740 l 1044 740 l 1044 486 l 979 486 l 979 0 l 439 0 q 158 66 262 0 q 54 276 54 132 z "},"'":{"ha":486,"x_min":40,"x_max":415,"o":"m 415 1136 l 301 751 l 40 751 l 154 1136 l 415 1136 z "},"’":{"ha":486,"x_min":40,"x_max":415,"o":"m 415 1136 l 301 751 l 40 751 l 154 1136 l 415 1136 z "},"(":{"ha":722,"x_min":182,"x_max":660,"o":"m 182 436 q 208 691 182 567 q 283 932 235 816 q 399 1161 331 1048 l 654 1039 q 552 809 590 912 q 497 613 514 706 q 480 426 480 520 q 530 103 480 256 q 660 -205 580 -50 l 410 -328 q 321 -169 360 -250 q 250 7 281 -89 q 200 211 218 103 q 182 436 182 319 z "},")":{"ha":722,"x_min":62,"x_max":543,"o":"m 543 436 q 525 210 543 319 q 476 7 507 102 q 404 -169 444 -87 q 315 -328 364 -251 l 62 -205 q 192 101 142 -53 q 242 426 242 255 q 233 566 242 498 q 204 706 223 633 q 150 864 184 779 q 71 1039 116 949 l 325 1161 q 543 436 539 801 z "},"*":{"ha":667,"x_min":54,"x_max":610,"o":"m 421 1136 l 401 953 l 561 1030 l 610 868 l 450 833 l 561 714 l 418 608 l 331 746 l 250 608 l 105 714 l 211 833 l 54 868 l 105 1030 l 262 953 l 244 1136 l 421 1136 z "},",":{"ha":418,"x_min":-11,"x_max":364,"o":"m 364 253 l 250 -133 l -11 -133 l 103 253 l 364 253 z "},"-":{"ha":445,"x_min":-3,"x_max":445,"o":"m 445 597 l 445 376 l -3 376 l -3 597 l 445 597 z "},".":{"ha":418,"x_min":85,"x_max":333,"o":"m 333 256 l 333 0 l 85 0 l 85 256 l 333 256 z "},"/":{"ha":694,"x_min":-11,"x_max":706,"o":"m 706 1136 l 236 -250 l 219 -290 l -11 -290 l 458 1096 l 475 1136 l 706 1136 z "},":":{"ha":418,"x_min":85,"x_max":333,"o":"m 333 840 l 333 583 l 85 583 l 85 840 l 333 840 m 333 258 l 333 0 l 85 0 l 85 258 l 333 258 z "},";":{"ha":418,"x_min":-11,"x_max":364,"o":"m 364 256 l 250 -131 l -11 -131 l 103 256 l 364 256 m 358 840 l 358 583 l 108 583 l 108 840 l 358 840 z "},"?":{"ha":890,"x_min":68,"x_max":820,"o":"m 196 0 l 196 256 l 489 256 l 489 0 l 196 0 m 196 325 l 196 407 q 234 497 196 453 q 349 604 272 541 q 464 713 425 668 q 504 806 503 758 q 465 865 504 851 q 361 879 427 879 l 322 879 l 68 879 l 133 1136 l 472 1136 q 651 1098 572 1136 q 775 987 730 1059 q 820 817 820 914 q 774 644 820 723 q 686 524 729 565 q 568 415 644 483 q 492 331 492 348 l 492 325 l 196 325 z "},"A":{"ha":1056,"x_min":35,"x_max":1013,"o":"m 211 -160 q 87 91 139 -54 q 35 404 35 235 q 59 614 35 505 q 144 826 84 723 q 304 1004 204 930 q 513 1108 403 1080 q 794 1136 623 1136 l 942 1136 l 1013 879 l 779 879 q 607 858 686 879 q 466 779 529 838 q 370 615 402 721 l 665 615 l 665 846 l 963 846 l 963 0 l 665 0 l 665 361 l 339 361 q 372 172 339 272 q 453 0 406 73 l 211 -160 z "},"B":{"ha":1082,"x_min":46,"x_max":1033,"o":"m 100 0 l 100 846 l 399 846 l 399 256 l 569 256 q 667 268 634 256 q 700 322 700 280 q 679 386 700 351 q 621 457 659 421 q 529 530 583 494 q 413 597 476 566 q 502 664 427 609 q 612 756 576 719 q 649 828 649 793 q 635 863 649 853 q 592 877 621 874 q 498 879 564 879 l 46 879 l 114 1136 l 651 1136 q 985 873 985 1136 q 961 766 985 815 q 911 688 938 717 q 836 615 884 660 q 974 475 915 555 q 1033 276 1033 395 q 973 104 1033 165 q 828 21 912 42 q 651 0 743 0 l 100 0 z "},"C":{"ha":806,"x_min":35,"x_max":808,"o":"m 35 692 q 161 1028 35 920 q 492 1136 287 1136 l 722 1136 l 792 879 l 561 879 q 397 830 453 879 q 342 665 342 780 q 368 521 342 594 q 447 388 394 449 q 583 291 501 327 q 771 254 664 254 q 808 256 796 254 l 738 0 l 683 0 q 419 58 540 0 q 212 215 299 115 q 80 439 126 314 q 35 692 35 563 z "},"D":{"ha":1082,"x_min":46,"x_max":1053,"o":"m 100 0 l 100 846 l 399 846 l 399 256 q 588 325 508 261 q 708 481 668 388 q 749 665 749 575 q 724 788 749 741 q 651 858 699 836 q 529 879 603 879 l 46 879 l 114 1136 l 600 1136 q 841 1085 740 1136 q 996 933 942 1034 q 1053 689 1050 833 q 1007 439 1053 562 q 870 216 960 316 q 645 58 779 117 q 345 0 512 0 l 100 0 z "},"E":{"ha":890,"x_min":97,"x_max":882,"o":"m 783 1136 l 851 879 l 393 879 l 393 711 l 811 711 l 740 455 l 393 455 l 393 256 l 882 256 l 814 0 l 97 0 l 97 1136 l 783 1136 z "},"F":{"ha":833,"x_min":97,"x_max":840,"o":"m 97 76 l 97 1136 l 771 1136 l 840 879 l 393 879 l 393 697 l 797 697 l 726 442 l 393 442 l 393 160 q 413 0 393 54 l 144 -174 q 107 -63 117 -121 q 97 76 97 -5 z "},"G":{"ha":1056,"x_min":35,"x_max":987,"o":"m 35 692 q 63 875 35 792 q 149 1015 92 957 q 292 1105 206 1074 q 492 1136 378 1136 l 903 1136 l 974 879 l 558 879 q 391 826 440 879 q 342 663 342 772 q 395 454 342 546 q 530 310 448 361 q 689 256 611 258 l 689 521 l 578 521 l 578 777 l 987 777 l 987 0 l 746 0 q 451 55 584 0 q 225 207 318 110 q 83 428 132 303 q 35 692 35 554 z "},"H":{"ha":1113,"x_min":100,"x_max":1010,"o":"m 100 79 l 100 1136 l 399 1136 l 399 777 l 711 777 l 711 1136 l 1010 1136 l 1010 0 l 711 0 l 711 521 l 399 521 l 399 160 q 418 0 399 48 l 146 -171 q 100 79 100 -81 z "},"I":{"ha":498,"x_min":100,"x_max":399,"o":"m 399 1136 l 399 0 l 100 0 l 100 1136 l 399 1136 z "},"J":{"ha":640,"x_min":-8,"x_max":537,"o":"m -8 -82 q 129 -8 78 -45 q 203 69 180 29 q 233 156 226 110 q 239 276 239 201 l 239 333 l 239 879 l 11 879 l 82 1136 l 537 1136 l 537 262 q 512 33 537 124 q 434 -117 486 -57 q 312 -218 382 -177 q 111 -315 241 -258 l -8 -82 z "},"K":{"ha":1001,"x_min":97,"x_max":1056,"o":"m 393 1136 l 393 0 l 97 0 l 97 1136 l 393 1136 m 1001 1136 l 729 635 l 1056 0 l 700 0 l 399 624 l 665 1136 l 1001 1136 z "},"L":{"ha":749,"x_min":97,"x_max":786,"o":"m 393 1136 l 393 256 l 786 256 l 717 0 l 97 0 l 97 1136 l 393 1136 z "},"M":{"ha":1250,"x_min":97,"x_max":1153,"o":"m 1153 1136 l 1153 0 l 854 0 l 854 686 l 851 686 l 624 379 l 399 686 l 396 686 l 396 0 l 97 0 l 97 1136 l 379 1136 l 624 803 l 871 1136 l 1153 1136 z "},"N":{"ha":1113,"x_min":100,"x_max":1013,"o":"m 1013 1136 l 1013 0 l 714 0 l 714 333 l 401 717 l 399 717 l 399 0 l 100 0 l 100 1136 l 382 1136 l 714 749 l 714 1136 l 1013 1136 z "},"O":{"ha":1113,"x_min":43,"x_max":1074,"o":"m 43 706 q 95 955 43 854 q 262 1108 147 1056 q 561 1161 377 1161 q 779 1136 684 1161 q 939 1057 873 1111 q 1039 916 1004 1003 q 1074 708 1074 830 q 1041 461 1074 589 q 944 222 1009 333 q 781 43 879 111 q 558 -25 684 -25 q 348 35 444 -25 q 183 199 252 95 q 79 435 115 303 q 43 706 43 567 m 364 683 q 391 487 364 587 q 462 323 417 387 q 555 258 506 258 q 660 329 615 258 q 730 500 706 399 q 754 683 754 600 q 700 846 754 797 q 561 896 647 896 q 413 846 463 896 q 364 683 364 796 z "},"P":{"ha":971,"x_min":46,"x_max":950,"o":"m 100 0 l 100 846 l 399 846 l 399 546 q 518 619 461 579 q 610 705 574 660 q 646 794 646 750 q 613 860 646 840 q 498 879 580 879 l 46 879 l 114 1136 l 578 1136 q 776 1101 693 1136 q 905 995 860 1066 q 950 822 950 924 q 902 637 950 725 q 773 478 853 549 q 596 350 693 406 q 399 253 499 294 l 399 0 l 100 0 z "},"Q":{"ha":1113,"x_min":38,"x_max":1074,"o":"m 38 708 q 77 923 38 836 q 187 1064 116 1011 q 350 1138 258 1116 q 555 1161 443 1161 q 1067 708 1067 1161 q 1018 440 1067 561 q 917 256 969 320 l 1074 256 l 1004 0 l 567 0 q 344 55 443 0 q 176 209 245 110 q 73 436 107 308 q 38 708 38 564 m 342 694 q 369 515 342 617 q 445 339 396 412 q 553 265 493 265 q 637 309 598 265 q 704 422 675 353 q 747 566 732 492 q 763 694 763 640 q 744 807 763 763 q 681 873 726 851 q 555 896 635 896 q 427 875 474 896 q 361 810 380 854 q 342 694 342 766 z "},"R":{"ha":1056,"x_min":46,"x_max":1093,"o":"m 100 0 l 100 846 l 399 846 l 399 0 l 100 0 m 46 879 l 114 1136 l 665 1136 q 855 1098 777 1136 q 971 993 933 1060 q 1010 843 1010 926 q 952 655 1010 744 q 765 483 893 566 q 907 244 838 345 q 1093 0 976 143 l 843 -171 q 700 13 767 -84 q 575 209 632 109 q 479 386 517 309 q 410 535 440 463 q 520 614 463 573 q 623 707 576 656 q 669 808 669 758 q 634 868 669 856 q 529 879 598 879 l 46 879 z "},"S":{"ha":779,"x_min":35,"x_max":768,"o":"m 46 256 l 315 256 q 400 262 373 256 q 426 293 426 268 q 418 322 426 309 q 394 354 410 336 q 376 372 377 372 l 176 600 q 104 686 132 649 q 55 771 76 722 q 35 873 35 820 q 69 1007 35 947 q 173 1102 104 1067 q 342 1136 242 1136 l 663 1136 l 732 879 l 480 879 q 398 873 424 879 q 372 840 372 866 q 380 811 372 824 q 421 763 388 798 l 629 532 q 731 401 693 463 q 768 258 768 340 q 744 145 767 194 q 680 64 722 96 q 584 16 639 32 q 461 0 528 0 l 114 0 l 46 256 z "},"T":{"ha":860,"x_min":-35,"x_max":896,"o":"m 828 1136 l 896 879 l 581 879 l 581 0 l 282 0 l 282 879 l -35 879 l 35 1136 l 828 1136 z "},"U":{"ha":1056,"x_min":35,"x_max":968,"o":"m 35 467 q 60 691 35 579 q 129 909 86 803 q 233 1136 173 1016 l 553 1136 q 497 1016 532 1092 q 427 849 462 941 q 367 657 392 758 q 342 472 342 557 q 368 344 342 392 q 444 276 395 296 q 561 256 492 256 l 669 256 l 669 1136 l 968 1136 l 968 0 l 486 0 q 143 126 252 0 q 35 467 35 253 z "},"V":{"ha":890,"x_min":-40,"x_max":928,"o":"m 276 1136 l 442 385 l 445 385 l 610 1136 l 928 1136 l 618 0 l 268 0 l -40 1136 l 276 1136 z "},"W":{"ha":1443,"x_min":-28,"x_max":1471,"o":"m 1471 1136 l 1183 0 l 860 0 l 724 663 l 720 663 l 586 0 l 261 0 l -28 1136 l 299 1136 l 432 418 l 435 418 l 572 1136 l 873 1136 l 1022 421 l 1028 421 l 1144 1136 l 1471 1136 z "},"X":{"ha":890,"x_min":-48,"x_max":939,"o":"m 445 364 l 288 0 l -48 0 l 247 594 l -25 1136 l 313 1136 l 445 822 l 578 1136 l 914 1136 l 643 594 l 939 0 l 603 0 l 445 364 z "},"Y":{"ha":860,"x_min":-52,"x_max":914,"o":"m 914 1136 l 581 450 l 581 160 q 597 0 581 57 l 328 -171 q 292 -55 302 -113 q 282 79 282 3 l 282 450 l -52 1136 l 288 1136 l 432 797 l 575 1136 l 914 1136 z "},"Z":{"ha":806,"x_min":-19,"x_max":814,"o":"m 97 1136 l 814 1136 l 421 256 l 800 256 l 729 0 l -19 0 l 372 879 l 29 879 l 97 1136 z "},"[":{"ha":555,"x_min":32,"x_max":540,"o":"m 540 -256 l 32 -256 l 32 1131 l 32 1136 l 540 1136 l 475 917 l 331 917 l 331 -35 l 475 -35 l 540 -256 z "},"]":{"ha":555,"x_min":17,"x_max":524,"o":"m 524 -256 l 17 -256 l 82 -35 l 225 -35 l 225 917 l 82 917 l 17 1136 l 524 1136 l 524 -250 l 524 -256 z "},"_":{"ha":694,"x_min":0,"x_max":694,"o":"m 694 -35 l 694 -256 l 0 -256 l 0 -35 l 694 -35 z "},"‘":{"ha":486,"x_min":71,"x_max":445,"o":"m 185 751 l 71 1136 l 331 1136 l 445 751 l 185 751 z "},"a":{"ha":860,"x_min":28,"x_max":783,"o":"m 28 518 q 79 714 28 643 q 209 813 131 786 q 376 840 288 840 l 783 840 l 783 0 l 515 0 q 259 76 371 0 q 88 272 148 151 q 28 518 28 392 m 415 612 q 328 584 354 612 q 301 496 301 555 q 327 380 301 438 q 401 279 352 321 q 518 225 450 237 l 518 612 l 415 612 z "},"b":{"ha":860,"x_min":79,"x_max":833,"o":"m 79 0 l 79 1136 l 345 1136 l 345 840 l 483 840 q 683 800 605 840 q 798 687 762 760 q 833 515 833 615 q 774 270 833 390 q 604 75 714 150 q 353 0 494 0 l 79 0 m 345 225 q 462 279 413 237 q 536 378 511 320 q 561 496 561 436 q 528 589 561 566 q 432 612 495 612 l 345 612 l 345 225 z "},"c":{"ha":640,"x_min":28,"x_max":626,"o":"m 28 518 q 78 712 28 640 q 207 812 129 784 q 376 840 284 840 l 546 840 l 610 612 l 435 612 q 367 605 395 612 q 320 573 339 598 q 301 496 301 547 q 330 373 301 437 q 412 268 359 310 q 532 225 466 225 l 626 225 l 558 0 l 515 0 q 269 73 381 0 q 93 266 157 145 q 28 518 28 386 z "},"d":{"ha":860,"x_min":28,"x_max":792,"o":"m 792 0 l 518 0 q 264 75 377 0 q 90 270 152 151 q 28 515 28 390 q 66 687 28 614 q 184 800 104 760 q 385 840 264 840 l 526 840 l 526 1136 l 792 1136 l 792 0 m 526 225 l 526 612 l 432 612 q 335 589 368 612 q 301 498 301 567 q 333 363 301 422 q 410 271 365 305 q 475 235 442 245 q 518 225 507 225 l 526 225 z "},"e":{"ha":806,"x_min":28,"x_max":783,"o":"m 28 518 q 53 680 28 614 q 127 786 78 746 q 247 842 176 825 q 413 860 318 860 q 607 844 528 860 q 735 777 686 828 q 783 626 783 726 q 732 455 783 531 q 617 331 680 378 q 480 242 554 284 q 637 225 532 225 l 743 225 l 678 0 l 515 0 q 332 39 421 0 q 175 150 244 79 q 67 316 106 221 q 28 518 28 412 m 318 407 q 442 486 372 431 q 512 592 512 540 q 429 632 512 632 q 338 603 374 632 q 301 507 301 575 q 318 407 301 471 z "},"f":{"ha":529,"x_min":35,"x_max":558,"o":"m 92 0 l 92 621 l 35 621 l 35 840 l 92 840 l 92 885 q 158 1077 92 1019 q 350 1136 224 1136 l 492 1136 l 558 908 l 461 908 l 425 908 q 374 897 387 908 q 361 840 361 885 l 518 840 l 518 621 l 361 621 l 361 0 l 92 0 z "},"g":{"ha":860,"x_min":28,"x_max":783,"o":"m 28 518 q 60 680 28 615 q 144 779 93 745 q 255 827 196 814 q 376 840 315 840 l 783 840 l 783 8 q 757 -180 783 -117 q 663 -270 731 -244 q 461 -296 595 -296 l 165 -296 l 97 -71 l 399 -71 l 432 -71 q 496 -58 476 -71 q 518 0 516 -45 q 322 43 413 0 q 165 162 231 87 q 63 330 99 237 q 28 518 28 423 m 518 612 l 432 612 q 335 588 369 612 q 301 496 301 563 q 327 380 301 440 q 401 278 352 321 q 518 225 450 236 l 518 612 z "},"h":{"ha":860,"x_min":74,"x_max":789,"o":"m 74 0 l 74 1136 l 342 1136 l 342 840 l 489 840 q 659 812 594 840 q 754 717 723 784 q 786 537 786 651 l 789 0 l 521 0 l 521 478 q 515 563 521 536 q 485 601 509 589 q 404 612 461 612 l 342 612 l 342 0 l 74 0 z "},"i":{"ha":418,"x_min":76,"x_max":342,"o":"m 342 840 l 342 0 l 76 0 l 76 840 l 342 840 m 342 1136 l 342 908 l 76 908 l 76 1136 l 342 1136 z "},"j":{"ha":445,"x_min":-40,"x_max":370,"o":"m 100 205 l 100 840 l 370 840 l 370 176 q 347 -27 370 56 q 282 -174 324 -111 q 168 -313 239 -237 l -40 -162 q 71 7 43 -79 q 100 205 100 94 m 100 908 l 100 1136 l 370 1136 l 370 908 l 100 908 z "},"k":{"ha":833,"x_min":79,"x_max":843,"o":"m 345 1136 l 345 0 l 79 0 l 79 1136 l 345 1136 m 806 840 l 632 472 l 843 0 l 549 0 l 347 464 l 515 840 l 806 840 z "},"l":{"ha":418,"x_min":76,"x_max":342,"o":"m 342 1136 l 342 0 l 76 0 l 76 1136 l 342 1136 z "},"m":{"ha":1250,"x_min":76,"x_max":1175,"o":"m 76 0 l 76 840 l 873 840 q 1064 799 998 840 q 1153 688 1131 758 q 1175 515 1175 618 l 1175 0 l 914 0 l 914 478 q 908 563 914 536 q 878 601 902 589 q 797 612 854 612 l 754 612 l 754 0 l 493 0 l 493 612 l 333 612 l 333 0 l 76 0 z "},"n":{"ha":860,"x_min":74,"x_max":789,"o":"m 472 840 q 640 821 575 840 q 748 732 706 802 q 789 518 789 661 l 789 0 l 521 0 l 521 478 q 515 560 521 534 q 484 599 509 586 q 404 612 460 612 l 342 612 l 342 0 l 74 0 l 74 840 l 472 840 z "},"o":{"ha":860,"x_min":29,"x_max":833,"o":"m 29 540 q 54 683 29 622 q 123 783 78 744 q 232 841 169 822 q 372 860 295 860 l 492 860 q 736 786 638 860 q 833 540 833 712 q 790 293 833 426 q 655 68 746 161 q 432 -25 564 -25 q 224 56 316 -25 q 80 268 132 137 q 29 540 29 399 m 301 515 q 322 372 301 442 q 372 260 342 303 q 429 217 402 217 q 489 258 458 217 q 541 369 520 300 q 561 515 561 437 q 432 632 561 632 q 301 515 301 632 z "},"p":{"ha":860,"x_min":79,"x_max":833,"o":"m 79 -290 l 79 840 l 483 840 q 750 753 666 840 q 833 515 833 666 q 771 269 833 382 q 597 82 708 157 q 345 -19 486 8 l 345 -290 l 79 -290 m 345 225 q 461 279 412 236 q 536 380 510 322 q 561 496 561 439 q 528 588 561 564 q 429 612 496 612 l 345 612 l 345 225 z "},"q":{"ha":860,"x_min":28,"x_max":789,"o":"m 789 840 l 789 -290 l 524 -290 l 524 0 l 382 0 q 182 40 261 0 q 65 152 102 80 q 28 322 28 224 q 63 509 28 417 q 162 677 97 602 q 318 796 227 752 q 515 840 408 840 l 789 840 m 524 612 q 405 561 455 603 q 328 460 354 518 q 301 342 301 401 q 336 251 301 274 q 436 228 371 228 l 524 228 l 524 612 z "},"r":{"ha":555,"x_min":82,"x_max":524,"o":"m 82 0 l 82 840 l 336 840 l 336 792 q 524 860 408 860 l 524 618 q 347 529 399 613 l 347 0 l 82 0 z "},"s":{"ha":610,"x_min":28,"x_max":575,"o":"m 174 225 q 195 224 180 225 q 219 222 209 222 q 265 247 265 222 q 228 313 265 264 l 117 455 q 54 551 75 510 q 32 646 32 593 q 57 738 32 693 q 134 812 83 783 q 258 840 185 840 l 483 840 l 549 621 l 429 621 q 371 614 389 621 q 353 589 353 608 q 393 524 353 574 l 493 399 q 575 205 575 296 q 546 100 575 147 q 469 26 518 53 q 367 0 421 0 l 92 0 l 28 225 l 174 225 z "},"t":{"ha":529,"x_min":28,"x_max":529,"o":"m 87 258 l 87 621 l 28 621 l 28 840 l 87 840 l 87 1004 l 356 1082 l 356 840 l 493 840 l 493 621 l 356 621 l 356 301 q 361 253 356 269 q 383 231 366 237 q 435 225 400 225 l 529 225 l 461 0 l 342 0 q 198 28 254 0 q 114 112 141 55 q 87 258 87 170 z "},"u":{"ha":860,"x_min":29,"x_max":792,"o":"m 29 350 q 50 509 29 427 q 93 652 70 591 q 171 840 117 712 l 445 840 q 402 724 433 807 q 354 587 371 641 q 324 477 336 532 q 313 370 313 421 q 333 274 313 306 q 390 234 353 243 q 496 225 428 225 l 526 225 l 526 840 l 792 840 l 792 0 l 367 0 q 29 350 29 0 z "},"v":{"ha":779,"x_min":-29,"x_max":808,"o":"m 808 840 l 543 0 l 236 0 l -29 840 l 253 840 l 388 301 l 390 301 l 526 840 l 808 840 z "},"w":{"ha":1224,"x_min":-29,"x_max":1250,"o":"m 1250 840 l 1025 0 l 738 0 l 612 507 l 608 507 l 486 0 l 199 0 l -29 840 l 256 840 l 358 274 l 364 274 l 486 840 l 738 840 l 860 274 l 863 274 l 965 840 l 1250 840 z "},"x":{"ha":722,"x_min":-52,"x_max":777,"o":"m 367 589 l 445 840 l 749 840 l 537 447 l 777 0 l 467 0 l 364 301 l 361 301 l 258 0 l -52 0 l 185 447 l -25 840 l 276 840 l 364 589 l 367 589 z "},"y":{"ha":779,"x_min":-38,"x_max":817,"o":"m 817 840 l 418 -290 l 131 -290 l 261 74 l -38 840 l 276 840 l 399 442 l 401 442 l 524 840 l 817 840 z "},"z":{"ha":667,"x_min":-14,"x_max":665,"o":"m 89 840 l 665 840 l 379 225 l 649 225 l 583 0 l -14 0 l 274 621 l 25 621 l 89 840 z "},"{":{"ha":555,"x_min":25,"x_max":567,"o":"m 25 421 l 25 426 q 102 464 75 437 q 136 526 129 491 q 144 606 144 561 l 144 982 q 167 1055 144 1019 q 233 1114 190 1091 q 336 1136 276 1136 l 567 1136 l 567 1074 q 485 1033 512 1057 q 448 977 457 1009 q 439 890 439 944 l 439 635 q 431 529 439 569 q 398 463 424 489 q 318 426 372 437 l 318 421 q 388 391 364 407 q 425 333 411 374 q 439 211 439 291 l 439 -43 q 567 -225 439 -193 l 567 -290 l 336 -290 q 238 -271 282 -290 q 169 -216 194 -251 q 144 -136 144 -181 l 144 242 q 136 325 144 290 q 102 384 127 359 q 25 421 76 409 z "},"}":{"ha":555,"x_min":-11,"x_max":532,"o":"m 532 421 q 456 384 481 409 q 421 325 430 359 q 413 242 413 292 l 413 -136 q 387 -216 413 -180 q 318 -271 362 -251 q 219 -290 274 -290 l -11 -290 l -11 -225 q 117 -43 117 -193 l 117 211 q 131 333 117 291 q 168 391 144 374 q 239 421 192 407 l 239 426 q 159 463 186 436 q 125 530 133 490 q 117 635 117 570 l 114 890 q 105 976 114 943 q 70 1033 97 1009 q -11 1074 43 1057 l -11 1136 l 219 1136 q 323 1114 279 1136 q 390 1055 367 1091 q 413 982 413 1020 l 413 606 q 421 526 413 561 q 455 464 429 491 q 532 426 481 437 l 532 421 z "},"`":{"ha":529,"x_min":114,"x_max":413,"o":"m 114 1136 l 319 1136 l 413 914 l 217 914 l 114 1136 z "},"ˆ":{"ha":694,"x_min":108,"x_max":586,"o":"m 450 1136 l 586 922 l 396 922 l 345 1007 l 296 922 l 108 922 l 242 1136 l 450 1136 z "},"˜":{"ha":722,"x_min":111,"x_max":610,"o":"m 111 1028 q 173 1098 140 1069 q 261 1126 206 1126 q 333 1110 274 1126 q 365 1099 343 1107 q 402 1088 388 1092 q 429 1085 417 1085 q 510 1126 479 1085 l 610 1036 q 554 971 593 1005 q 464 936 515 936 q 424 941 444 936 q 371 956 405 946 q 320 971 338 967 q 285 976 302 976 q 211 936 238 976 l 111 1028 z "},"ı":{"ha":418,"x_min":76,"x_max":342,"o":"m 342 840 l 342 0 l 76 0 l 76 840 l 342 840 z "},"ƒ":{"ha":624,"x_min":22,"x_max":643,"o":"m 176 0 l 176 621 l 119 621 l 119 840 l 176 840 q 175 861 176 847 q 174 885 174 876 q 240 1078 174 1019 q 435 1136 306 1136 l 575 1136 l 643 908 l 543 908 l 507 908 q 467 904 480 908 q 448 886 454 900 q 442 840 442 871 l 600 840 l 600 621 l 442 621 l 442 0 q 414 -178 442 -115 q 318 -268 387 -241 q 122 -296 250 -296 l 87 -296 l 22 -71 l 57 -71 l 92 -71 q 154 -57 132 -71 q 176 0 176 -43 z "},"“":{"ha":917,"x_min":89,"x_max":828,"o":"m 567 751 l 453 1136 l 714 1136 l 828 751 l 567 751 m 203 751 l 89 1136 l 350 1136 l 464 751 l 203 751 z "},"”":{"ha":917,"x_min":89,"x_max":828,"o":"m 464 1136 l 350 751 l 89 751 l 203 1136 l 464 1136 m 828 1136 l 714 751 l 453 751 l 567 1136 l 828 1136 z "},"‹":{"ha":347,"x_min":14,"x_max":325,"o":"m 325 726 l 199 486 l 318 219 l 168 151 l 14 486 l 182 803 l 325 726 z "},"›":{"ha":347,"x_min":22,"x_max":333,"o":"m 22 726 l 165 803 l 333 486 l 179 151 l 29 219 l 149 486 l 22 726 z "},"":{"ha":860,"x_min":35,"x_max":786,"o":"m 92 0 l 92 621 l 35 621 l 35 840 l 92 840 l 92 885 q 158 1077 92 1019 q 350 1136 224 1136 l 621 1136 l 686 908 l 461 908 l 425 908 q 374 897 387 908 q 361 840 361 885 l 786 840 l 786 0 l 521 0 l 521 621 l 361 621 l 361 0 l 92 0 z "},"":{"ha":860,"x_min":35,"x_max":786,"o":"m 92 0 l 92 621 l 35 621 l 35 840 l 92 840 l 92 885 q 158 1077 92 1019 q 350 1136 224 1136 l 786 1136 l 786 0 l 521 0 l 521 908 l 461 908 l 425 908 q 374 897 387 908 q 361 840 361 885 l 486 840 l 421 621 l 361 621 l 361 0 l 92 0 z "},"–":{"ha":694,"x_min":0,"x_max":694,"o":"m 694 597 l 694 376 l 0 376 l 0 597 l 694 597 z "},"•":{"ha":667,"x_min":48,"x_max":615,"o":"m 615 840 l 615 288 l 48 288 l 48 840 l 615 840 z "},"˘":{"ha":555,"x_min":54,"x_max":502,"o":"m 54 1161 q 279 1074 160 1074 q 502 1161 401 1074 l 502 982 q 279 865 403 865 q 54 982 166 865 l 54 1161 z "},"„":{"ha":917,"x_min":89,"x_max":828,"o":"m 464 256 l 350 -131 l 89 -131 l 203 256 l 464 256 m 828 256 l 714 -131 l 453 -131 l 567 256 l 828 256 z "},"…":{"ha":1389,"x_min":105,"x_max":1283,"o":"m 358 256 l 358 0 l 105 0 l 105 256 l 358 256 m 820 256 l 820 0 l 569 0 l 569 256 l 820 256 m 1283 256 l 1283 0 l 1033 0 l 1033 256 l 1283 256 z "},"™":{"ha":1264,"x_min":32,"x_max":1221,"o":"m 526 1136 l 567 1007 l 382 1007 l 382 564 l 211 564 l 211 1007 l 32 1007 l 74 1136 l 526 1136 m 1221 1136 l 1221 564 l 1050 564 l 1050 890 l 917 740 l 786 890 l 786 564 l 615 564 l 615 1136 l 779 1136 l 917 971 l 1058 1136 l 1221 1136 z "},"¡":{"ha":555,"x_min":131,"x_max":424,"o":"m 424 -296 l 131 -296 l 131 515 l 424 515 l 424 -296 m 424 583 l 131 583 l 131 840 l 424 840 l 424 583 z "},"¢":{"ha":694,"x_min":43,"x_max":640,"o":"m 43 665 q 91 857 43 762 q 301 979 139 952 l 301 1113 l 447 1113 l 447 987 l 561 987 l 626 760 l 447 760 q 348 735 381 760 q 315 646 315 711 q 349 513 315 575 q 436 412 382 450 q 543 375 489 375 l 640 375 l 575 146 l 532 146 q 447 154 509 146 l 447 62 l 301 62 l 301 211 q 164 328 223 255 q 74 490 105 401 q 43 665 43 578 z "},"£":{"ha":917,"x_min":79,"x_max":908,"o":"m 162 0 l 162 447 l 79 447 l 79 706 l 162 706 l 162 846 q 231 1068 162 1000 q 435 1136 299 1136 l 783 1136 l 854 879 l 589 879 q 499 874 523 879 q 468 849 475 868 q 461 778 461 830 l 461 738 l 461 706 l 722 706 l 722 447 l 461 447 l 461 256 l 908 256 l 840 0 l 162 0 z "},"¥":{"ha":908,"x_min":-28,"x_max":936,"o":"m 603 404 l 603 160 q 621 0 603 57 l 353 -171 q 325 -92 335 -132 q 311 -11 315 -53 q 307 79 307 31 l 307 404 l 46 404 l 46 624 l 222 624 l -28 1136 l 310 1136 l 455 797 l 600 1136 l 936 1136 l 686 624 l 865 624 l 865 404 l 603 404 z "},"¨":{"ha":694,"x_min":117,"x_max":578,"o":"m 578 1136 l 578 950 l 390 950 l 390 1136 l 578 1136 m 301 1136 l 301 950 l 117 950 l 117 1136 l 301 1136 z "},"©":{"ha":1304,"x_min":60,"x_max":1250,"o":"m 333 640 q 380 791 333 734 q 499 872 426 848 q 654 896 571 896 l 820 896 l 871 749 l 768 749 q 602 727 652 749 q 553 624 553 705 q 593 503 553 556 q 709 420 633 450 q 885 390 784 390 l 836 247 l 797 247 q 563 300 669 247 q 395 442 456 352 q 333 640 333 532 m 657 1164 q 953 1084 816 1164 q 1170 867 1089 1004 q 1250 569 1250 730 q 1170 272 1250 409 q 953 55 1089 135 q 657 -25 816 -25 q 358 55 496 -25 q 140 272 220 135 q 60 569 60 409 q 140 867 60 730 q 358 1084 220 1004 q 657 1164 496 1164 m 654 1001 q 437 943 537 1001 q 278 786 337 885 q 219 569 219 686 q 278 353 219 453 q 437 197 337 254 q 654 139 537 139 q 871 197 772 139 q 1029 354 971 255 q 1087 569 1087 453 q 1029 786 1087 686 q 871 943 971 885 q 654 1001 771 1001 z "},"ª":{"ha":515,"x_min":14,"x_max":502,"o":"m 14 953 q 80 1105 14 1062 q 239 1147 146 1147 l 502 1147 l 502 643 l 328 643 q 163 688 235 643 q 53 806 92 734 q 14 953 14 878 m 262 1010 q 190 942 190 1010 q 227 837 190 885 q 331 779 264 788 l 331 1013 l 262 1010 m 29 569 l 502 569 l 502 435 l 29 435 l 29 569 z "},"«":{"ha":694,"x_min":22,"x_max":651,"o":"m 333 726 l 205 489 l 325 219 l 179 154 l 22 489 l 190 803 l 333 726 m 651 726 l 521 489 l 640 219 l 493 154 l 339 489 l 507 803 l 651 726 z "},"—":{"ha":1389,"x_min":0,"x_max":1392,"o":"m 1392 597 l 1392 376 l 5 376 l 0 376 l 0 597 l 1386 597 l 1392 597 z "},"®":{"ha":1304,"x_min":60,"x_max":1250,"o":"m 404 296 l 404 738 l 575 738 l 575 296 l 404 296 m 372 765 l 410 897 l 724 897 q 869 854 818 897 q 920 743 920 810 q 782 555 920 636 q 856 441 821 488 q 957 318 890 394 l 817 228 q 713 352 760 287 q 632 478 666 418 q 578 583 598 537 q 629 618 585 589 q 700 675 673 648 q 726 726 726 701 q 703 758 726 751 q 643 765 680 765 l 372 765 m 654 1001 q 437 943 537 1001 q 278 786 337 885 q 219 569 219 686 q 278 353 219 453 q 437 197 337 254 q 654 139 537 139 q 871 197 772 139 q 1029 354 971 255 q 1087 569 1087 453 q 1029 786 1087 686 q 871 943 971 885 q 654 1001 771 1001 m 657 1164 q 953 1084 816 1164 q 1170 867 1089 1004 q 1250 569 1250 730 q 1170 272 1250 409 q 953 55 1089 135 q 657 -25 816 -25 q 358 55 496 -25 q 140 272 220 135 q 60 569 60 409 q 140 867 60 730 q 358 1084 220 1004 q 657 1164 496 1164 z "},"˚":{"ha":529,"x_min":151,"x_max":458,"o":"m 151 985 q 172 1082 151 1035 q 229 1158 193 1129 q 307 1187 264 1187 q 381 1160 346 1187 q 437 1085 416 1132 q 458 985 458 1038 q 307 868 458 868 q 151 985 151 868 m 239 1001 q 255 961 239 973 q 307 950 272 950 q 372 1001 372 950 q 354 1068 372 1040 q 307 1096 336 1096 q 258 1068 277 1096 q 239 1001 239 1040 z "},"²":{"ha":594,"x_min":22,"x_max":529,"o":"m 22 455 l 271 903 q 290 956 290 943 q 274 978 290 974 q 219 982 258 982 l 57 982 l 103 1136 l 333 1136 q 464 1099 418 1136 q 510 1001 510 1062 q 498 935 510 962 q 455 849 487 909 l 319 610 l 529 610 l 486 455 l 22 455 z "},"³":{"ha":610,"x_min":35,"x_max":543,"o":"m 35 608 l 225 608 q 299 616 277 608 q 322 649 322 623 q 149 814 322 699 l 247 882 q 301 950 301 917 q 283 977 301 972 q 211 982 265 982 l 48 982 l 92 1136 l 304 1136 q 521 976 521 1136 q 494 895 521 930 q 418 817 468 860 q 514 720 484 766 q 543 624 543 675 q 489 504 543 552 q 336 455 435 455 l 82 455 l 35 608 z "},"´":{"ha":529,"x_min":211,"x_max":510,"o":"m 510 1136 l 407 914 l 211 914 l 304 1136 l 510 1136 z "},"µ":{"ha":860,"x_min":29,"x_max":792,"o":"m 29 350 q 50 509 29 427 q 93 652 70 591 q 171 840 117 712 l 445 840 q 402 724 433 807 q 354 587 371 641 q 324 477 336 532 q 313 370 313 421 q 333 274 313 306 q 390 234 353 243 q 496 225 428 225 l 526 225 l 526 840 l 792 840 l 792 0 l 367 0 l 350 0 q 436 -162 368 -87 l 228 -313 q 119 -150 160 -242 q 58 35 77 -58 q 34 203 39 127 q 29 350 29 279 z "},"·":{"ha":418,"x_min":85,"x_max":333,"o":"m 333 615 l 333 361 l 85 361 l 85 615 l 333 615 z "},"¸":{"ha":555,"x_min":274,"x_max":486,"o":"m 410 136 l 410 -14 l 442 -14 q 486 -60 486 -14 l 486 -211 q 474 -266 486 -242 q 432 -290 461 -290 l 274 -290 l 274 -171 l 370 -171 l 370 -92 l 342 -92 q 299 -48 299 -92 l 299 136 l 410 136 z "},"¹":{"ha":418,"x_min":3,"x_max":318,"o":"m 46 1136 l 318 1136 l 318 455 l 128 455 l 128 982 l 3 982 l 46 1136 z "},"º":{"ha":515,"x_min":-3,"x_max":521,"o":"m -3 968 q 57 1113 -3 1065 q 219 1161 116 1161 l 299 1161 q 458 1116 394 1161 q 521 968 521 1072 q 505 861 521 919 q 458 751 490 803 q 376 665 426 699 q 261 632 326 632 q 125 680 185 632 q 31 807 64 729 q -3 968 -3 884 m 174 956 q 187 870 174 911 q 220 802 200 828 q 258 777 240 777 q 316 831 287 777 q 345 956 345 886 q 258 1025 345 1025 q 174 956 174 1025 m 14 569 l 504 569 l 504 435 l 14 435 l 14 569 z "},"»":{"ha":694,"x_min":46,"x_max":672,"o":"m 361 726 l 504 803 l 672 486 l 518 151 l 370 219 l 489 486 l 361 726 m 46 726 l 190 803 l 358 486 l 201 151 l 54 219 l 174 486 l 46 726 z "},"¿":{"ha":890,"x_min":68,"x_max":820,"o":"m 692 840 l 692 583 l 399 583 l 399 840 l 692 840 m 692 515 l 692 435 q 654 345 692 388 q 539 238 616 302 q 424 128 463 173 q 385 35 385 82 q 430 -26 385 -13 q 564 -40 476 -40 l 820 -40 l 754 -296 l 415 -296 q 237 -258 316 -296 q 113 -147 157 -220 q 68 25 68 -74 q 114 195 68 117 q 204 317 159 274 q 324 425 249 360 q 399 507 399 489 q 396 515 399 512 l 692 515 z "},"À":{"ha":1056,"x_min":35,"x_max":1013,"o":"m 211 -160 q 87 91 139 -54 q 35 404 35 235 q 59 614 35 505 q 144 826 84 723 q 304 1004 204 930 q 513 1108 403 1080 q 794 1136 623 1136 l 942 1136 l 1013 879 l 779 879 q 607 858 686 879 q 466 779 529 838 q 370 615 402 721 l 665 615 l 665 846 l 963 846 l 963 0 l 665 0 l 665 361 l 339 361 q 372 172 339 272 q 453 0 406 73 l 211 -160 m 376 1432 l 582 1432 l 675 1210 l 479 1210 l 376 1432 z "},"Á":{"ha":1056,"x_min":35,"x_max":1013,"o":"m 211 -160 q 87 91 139 -54 q 35 404 35 235 q 59 614 35 505 q 144 826 84 723 q 304 1004 204 930 q 513 1108 403 1080 q 794 1136 623 1136 l 942 1136 l 1013 879 l 779 879 q 607 858 686 879 q 466 779 529 838 q 370 615 402 721 l 665 615 l 665 846 l 963 846 l 963 0 l 665 0 l 665 361 l 339 361 q 372 172 339 272 q 453 0 406 73 l 211 -160 m 781 1432 l 678 1210 l 482 1210 l 575 1432 l 781 1432 z "},"Â":{"ha":1056,"x_min":35,"x_max":1013,"o":"m 211 -160 q 87 91 139 -54 q 35 404 35 235 q 59 614 35 505 q 144 826 84 723 q 304 1004 204 930 q 513 1108 403 1080 q 794 1136 623 1136 l 942 1136 l 1013 879 l 779 879 q 607 858 686 879 q 466 779 529 838 q 370 615 402 721 l 665 615 l 665 846 l 963 846 l 963 0 l 665 0 l 665 361 l 339 361 q 372 172 339 272 q 453 0 406 73 l 211 -160 m 664 1432 l 800 1218 l 610 1218 l 558 1303 l 510 1218 l 322 1218 l 456 1432 l 664 1432 z "},"Ã":{"ha":1056,"x_min":35,"x_max":1013,"o":"m 211 -160 q 87 91 139 -54 q 35 404 35 235 q 59 614 35 505 q 144 826 84 723 q 304 1004 204 930 q 513 1108 403 1080 q 794 1136 623 1136 l 942 1136 l 1013 879 l 779 879 q 607 858 686 879 q 466 779 529 838 q 370 615 402 721 l 665 615 l 665 846 l 963 846 l 963 0 l 665 0 l 665 361 l 339 361 q 372 172 339 272 q 453 0 406 73 l 211 -160 m 314 1323 q 376 1393 343 1365 q 464 1422 409 1422 q 536 1406 476 1422 q 568 1395 546 1403 q 605 1384 590 1388 q 632 1380 620 1380 q 712 1422 682 1380 l 812 1332 q 757 1266 795 1301 q 667 1232 718 1232 q 627 1237 647 1232 q 574 1252 607 1241 q 523 1267 541 1262 q 488 1272 505 1272 q 414 1232 440 1272 l 314 1323 z "},"Ä":{"ha":1056,"x_min":35,"x_max":1013,"o":"m 211 -160 q 87 91 139 -54 q 35 404 35 235 q 59 614 35 505 q 144 826 84 723 q 304 1004 204 930 q 513 1108 403 1080 q 794 1136 623 1136 l 942 1136 l 1013 879 l 779 879 q 607 858 686 879 q 466 779 529 838 q 370 615 402 721 l 665 615 l 665 846 l 963 846 l 963 0 l 665 0 l 665 361 l 339 361 q 372 172 339 272 q 453 0 406 73 l 211 -160 m 786 1432 l 786 1246 l 598 1246 l 598 1432 l 786 1432 m 510 1432 l 510 1246 l 325 1246 l 325 1432 l 510 1432 z "},"Å":{"ha":1056,"x_min":35,"x_max":1013,"o":"m 211 -160 q 87 91 139 -54 q 35 404 35 235 q 59 614 35 505 q 144 826 84 723 q 304 1004 204 930 q 513 1108 403 1080 q 794 1136 623 1136 l 942 1136 l 1013 879 l 779 879 q 607 858 686 879 q 466 779 529 838 q 370 615 402 721 l 665 615 l 665 846 l 963 846 l 963 0 l 665 0 l 665 361 l 339 361 q 372 172 339 272 q 453 0 406 73 l 211 -160 m 433 1280 q 454 1377 433 1330 q 510 1454 475 1424 q 589 1483 546 1483 q 663 1455 628 1483 q 719 1381 698 1428 q 740 1280 740 1334 q 589 1164 740 1164 q 433 1280 433 1164 m 521 1297 q 537 1257 521 1269 q 589 1246 553 1246 q 654 1297 654 1246 q 636 1364 654 1336 q 589 1392 618 1392 q 540 1364 559 1392 q 521 1297 521 1336 z "},"Æ":{"ha":1454,"x_min":35,"x_max":1449,"o":"m 1411 879 l 746 879 q 545 837 635 879 q 413 706 455 794 l 665 706 l 665 846 l 963 846 l 963 706 l 1378 706 l 1307 447 l 963 447 l 963 256 l 1449 256 l 1378 0 l 665 0 l 665 447 l 333 447 q 453 0 337 181 l 211 -160 q 87 91 139 -54 q 35 404 35 235 q 59 614 35 505 q 144 826 84 723 q 304 1004 204 930 q 436 1080 367 1052 q 584 1123 505 1109 q 760 1136 663 1136 l 1340 1136 l 1411 879 z "},"Ç":{"ha":806,"x_min":35,"x_max":808,"o":"m 424 57 q 216 211 304 111 q 81 436 128 311 q 35 692 35 562 q 161 1028 35 920 q 492 1136 287 1136 l 722 1136 l 792 879 l 561 879 q 397 830 453 879 q 342 665 342 780 q 368 521 342 594 q 447 388 394 449 q 583 291 501 327 q 771 254 664 254 q 808 256 796 254 l 738 0 l 683 0 q 535 17 607 0 l 535 -14 l 567 -14 q 610 -60 610 -14 l 610 -211 q 558 -290 610 -290 l 401 -290 l 401 -171 l 493 -171 l 493 -92 l 467 -92 q 424 -48 424 -92 l 424 57 z "},"È":{"ha":890,"x_min":97,"x_max":882,"o":"m 783 1136 l 851 879 l 393 879 l 393 711 l 811 711 l 740 455 l 393 455 l 393 256 l 882 256 l 814 0 l 97 0 l 97 1136 l 783 1136 m 296 1432 l 502 1432 l 595 1210 l 399 1210 l 296 1432 z "},"É":{"ha":890,"x_min":97,"x_max":882,"o":"m 783 1136 l 851 879 l 393 879 l 393 711 l 811 711 l 740 455 l 393 455 l 393 256 l 882 256 l 814 0 l 97 0 l 97 1136 l 783 1136 m 692 1432 l 589 1210 l 393 1210 l 486 1432 l 692 1432 z "},"Ê":{"ha":890,"x_min":97,"x_max":882,"o":"m 783 1136 l 851 879 l 393 879 l 393 711 l 811 711 l 740 455 l 393 455 l 393 256 l 882 256 l 814 0 l 97 0 l 97 1136 l 783 1136 m 547 1432 l 684 1218 l 493 1218 l 442 1303 l 393 1218 l 205 1218 l 339 1432 l 547 1432 z "},"Ë":{"ha":890,"x_min":97,"x_max":882,"o":"m 783 1136 l 851 879 l 393 879 l 393 711 l 811 711 l 740 455 l 393 455 l 393 256 l 882 256 l 814 0 l 97 0 l 97 1136 l 783 1136 m 675 1432 l 675 1246 l 488 1246 l 488 1432 l 675 1432 m 399 1432 l 399 1246 l 214 1246 l 214 1432 l 399 1432 z "},"Ì":{"ha":498,"x_min":100,"x_max":399,"o":"m 399 1136 l 399 0 l 100 0 l 100 1136 l 399 1136 m 100 1432 l 306 1432 l 399 1210 l 203 1210 l 100 1432 z "},"Í":{"ha":498,"x_min":100,"x_max":496,"o":"m 399 1136 l 399 0 l 100 0 l 100 1136 l 399 1136 m 496 1432 l 393 1210 l 197 1210 l 290 1432 l 496 1432 z "},"Î":{"ha":498,"x_min":14,"x_max":492,"o":"m 399 1136 l 399 0 l 100 0 l 100 1136 l 399 1136 m 355 1432 l 492 1218 l 301 1218 l 250 1303 l 201 1218 l 14 1218 l 147 1432 l 355 1432 z "},"Ï":{"ha":498,"x_min":19,"x_max":480,"o":"m 399 1136 l 399 0 l 100 0 l 100 1136 l 399 1136 m 480 1432 l 480 1246 l 293 1246 l 293 1432 l 480 1432 m 204 1432 l 204 1246 l 19 1246 l 19 1432 l 204 1432 z "},"Ð":{"ha":1082,"x_min":-19,"x_max":1053,"o":"m 399 657 l 567 657 l 529 518 l 399 518 l 399 256 q 588 325 508 261 q 708 481 668 388 q 749 665 749 575 q 724 788 749 741 q 651 858 699 836 q 529 879 603 879 l 46 879 l 114 1136 l 600 1136 q 841 1085 740 1136 q 996 933 942 1034 q 1053 689 1050 833 q 1007 439 1053 562 q 870 216 960 316 q 645 58 779 117 q 345 0 512 0 l 100 0 l 100 518 l -19 518 l 19 657 l 100 657 l 100 846 l 399 846 l 399 657 z "},"Ñ":{"ha":1113,"x_min":100,"x_max":1013,"o":"m 1013 1136 l 1013 0 l 714 0 l 714 333 l 401 717 l 399 717 l 399 0 l 100 0 l 100 1136 l 382 1136 l 714 749 l 714 1136 l 1013 1136 m 290 1323 q 352 1393 319 1365 q 440 1422 385 1422 q 512 1406 453 1422 q 544 1395 522 1403 q 582 1384 567 1388 q 608 1380 596 1380 q 689 1422 659 1380 l 789 1332 q 733 1266 772 1301 q 643 1232 694 1232 q 603 1237 623 1232 q 551 1252 584 1241 q 499 1267 517 1262 q 464 1272 481 1272 q 390 1232 417 1272 l 290 1323 z "},"Ò":{"ha":1113,"x_min":43,"x_max":1074,"o":"m 43 706 q 95 955 43 854 q 262 1108 147 1056 q 561 1161 377 1161 q 779 1136 684 1161 q 939 1057 873 1111 q 1039 916 1004 1003 q 1074 708 1074 830 q 1041 461 1074 589 q 944 222 1009 333 q 781 43 879 111 q 558 -25 684 -25 q 348 35 444 -25 q 183 199 252 95 q 79 435 115 303 q 43 706 43 567 m 364 683 q 391 487 364 587 q 462 323 417 387 q 555 258 506 258 q 660 329 615 258 q 730 500 706 399 q 754 683 754 600 q 700 846 754 797 q 561 896 647 896 q 413 846 463 896 q 364 683 364 796 m 407 1432 l 612 1432 l 706 1210 l 510 1210 l 407 1432 z "},"Ó":{"ha":1113,"x_min":43,"x_max":1074,"o":"m 43 706 q 95 955 43 854 q 262 1108 147 1056 q 561 1161 377 1161 q 779 1136 684 1161 q 939 1057 873 1111 q 1039 916 1004 1003 q 1074 708 1074 830 q 1041 461 1074 589 q 944 222 1009 333 q 781 43 879 111 q 558 -25 684 -25 q 348 35 444 -25 q 183 199 252 95 q 79 435 115 303 q 43 706 43 567 m 364 683 q 391 487 364 587 q 462 323 417 387 q 555 258 506 258 q 660 329 615 258 q 730 500 706 399 q 754 683 754 600 q 700 846 754 797 q 561 896 647 896 q 413 846 463 896 q 364 683 364 796 m 803 1432 l 700 1210 l 504 1210 l 597 1432 l 803 1432 z "},"Ô":{"ha":1113,"x_min":43,"x_max":1074,"o":"m 43 706 q 95 955 43 854 q 262 1108 147 1056 q 561 1161 377 1161 q 779 1136 684 1161 q 939 1057 873 1111 q 1039 916 1004 1003 q 1074 708 1074 830 q 1041 461 1074 589 q 944 222 1009 333 q 781 43 879 111 q 558 -25 684 -25 q 348 35 444 -25 q 183 199 252 95 q 79 435 115 303 q 43 706 43 567 m 364 683 q 391 487 364 587 q 462 323 417 387 q 555 258 506 258 q 660 329 615 258 q 730 500 706 399 q 754 683 754 600 q 700 846 754 797 q 561 896 647 896 q 413 846 463 896 q 364 683 364 796 m 658 1432 l 794 1218 l 604 1218 l 553 1303 l 504 1218 l 316 1218 l 450 1432 l 658 1432 z "},"Õ":{"ha":1113,"x_min":43,"x_max":1074,"o":"m 43 706 q 95 955 43 854 q 262 1108 147 1056 q 561 1161 377 1161 q 779 1136 684 1161 q 939 1057 873 1111 q 1039 916 1004 1003 q 1074 708 1074 830 q 1041 461 1074 589 q 944 222 1009 333 q 781 43 879 111 q 558 -25 684 -25 q 348 35 444 -25 q 183 199 252 95 q 79 435 115 303 q 43 706 43 567 m 364 683 q 391 487 364 587 q 462 323 417 387 q 555 258 506 258 q 660 329 615 258 q 730 500 706 399 q 754 683 754 600 q 700 846 754 797 q 561 896 647 896 q 413 846 463 896 q 364 683 364 796 m 307 1323 q 369 1393 336 1365 q 457 1422 402 1422 q 529 1406 470 1422 q 561 1395 539 1403 q 598 1384 584 1388 q 625 1380 613 1380 q 706 1422 675 1380 l 806 1332 q 750 1266 789 1301 q 660 1232 711 1232 q 620 1237 640 1232 q 567 1252 601 1241 q 516 1267 534 1262 q 481 1272 498 1272 q 407 1232 434 1272 l 307 1323 z "},"Ö":{"ha":1113,"x_min":43,"x_max":1074,"o":"m 43 706 q 95 955 43 854 q 262 1108 147 1056 q 561 1161 377 1161 q 779 1136 684 1161 q 939 1057 873 1111 q 1039 916 1004 1003 q 1074 708 1074 830 q 1041 461 1074 589 q 944 222 1009 333 q 781 43 879 111 q 558 -25 684 -25 q 348 35 444 -25 q 183 199 252 95 q 79 435 115 303 q 43 706 43 567 m 364 683 q 391 487 364 587 q 462 323 417 387 q 555 258 506 258 q 660 329 615 258 q 730 500 706 399 q 754 683 754 600 q 700 846 754 797 q 561 896 647 896 q 413 846 463 896 q 364 683 364 796 m 786 1432 l 786 1246 l 598 1246 l 598 1432 l 786 1432 m 510 1432 l 510 1246 l 325 1246 l 325 1432 l 510 1432 z "},"Œ":{"ha":1554,"x_min":43,"x_max":1551,"o":"m 350 689 q 380 486 350 592 q 458 311 410 381 q 555 242 507 242 q 663 318 614 242 q 738 502 711 394 q 765 692 765 610 q 737 821 765 776 q 665 881 709 866 q 561 896 621 896 q 447 879 492 896 q 375 817 401 863 q 350 689 350 771 m 694 0 q 558 -25 633 -25 q 348 35 444 -25 q 183 199 252 95 q 79 435 115 303 q 43 706 43 567 q 95 955 43 854 q 262 1108 147 1056 q 561 1161 377 1161 q 765 1136 672 1161 l 1451 1136 l 1519 879 l 1056 879 l 1056 711 l 1478 711 l 1408 455 l 1056 455 l 1056 256 l 1551 256 l 1480 0 l 694 0 z "},"Ø":{"ha":1113,"x_min":17,"x_max":1158,"o":"m 319 54 l 205 -76 l 17 89 l 157 247 q 73 464 103 345 q 43 706 43 583 q 95 955 43 854 q 262 1108 147 1056 q 561 1161 377 1161 q 868 1099 749 1161 l 968 1215 l 1158 1050 l 1039 908 q 1074 708 1074 819 q 1041 461 1074 589 q 944 222 1009 333 q 781 43 879 111 q 558 -25 684 -25 q 319 54 429 -25 m 350 692 q 380 489 350 595 q 457 314 409 383 q 555 244 505 244 q 639 290 601 244 q 705 407 677 335 q 748 557 733 480 q 763 694 763 633 q 735 822 763 778 q 665 881 708 867 q 561 896 621 896 q 446 881 491 896 q 375 820 401 865 q 350 692 350 775 z "},"Ù":{"ha":1056,"x_min":35,"x_max":968,"o":"m 35 467 q 60 691 35 579 q 129 909 86 803 q 233 1136 173 1016 l 553 1136 q 497 1016 532 1092 q 427 849 462 941 q 367 657 392 758 q 342 472 342 557 q 368 344 342 392 q 444 276 395 296 q 561 256 492 256 l 669 256 l 669 1136 l 968 1136 l 968 0 l 486 0 q 143 126 252 0 q 35 467 35 253 m 376 1432 l 582 1432 l 675 1210 l 479 1210 l 376 1432 z "},"Ú":{"ha":1056,"x_min":35,"x_max":968,"o":"m 35 467 q 60 691 35 579 q 129 909 86 803 q 233 1136 173 1016 l 553 1136 q 497 1016 532 1092 q 427 849 462 941 q 367 657 392 758 q 342 472 342 557 q 368 344 342 392 q 444 276 395 296 q 561 256 492 256 l 669 256 l 669 1136 l 968 1136 l 968 0 l 486 0 q 143 126 252 0 q 35 467 35 253 m 772 1432 l 669 1210 l 474 1210 l 567 1432 l 772 1432 z "},"Û":{"ha":1056,"x_min":35,"x_max":968,"o":"m 35 467 q 60 691 35 579 q 129 909 86 803 q 233 1136 173 1016 l 553 1136 q 497 1016 532 1092 q 427 849 462 941 q 367 657 392 758 q 342 472 342 557 q 368 344 342 392 q 444 276 395 296 q 561 256 492 256 l 669 256 l 669 1136 l 968 1136 l 968 0 l 486 0 q 143 126 252 0 q 35 467 35 253 m 649 1432 l 785 1218 l 594 1218 l 543 1303 l 494 1218 l 307 1218 l 440 1432 l 649 1432 z "},"Ü":{"ha":1056,"x_min":35,"x_max":968,"o":"m 35 467 q 60 691 35 579 q 129 909 86 803 q 233 1136 173 1016 l 553 1136 q 497 1016 532 1092 q 427 849 462 941 q 367 657 392 758 q 342 472 342 557 q 368 344 342 392 q 444 276 395 296 q 561 256 492 256 l 669 256 l 669 1136 l 968 1136 l 968 0 l 486 0 q 143 126 252 0 q 35 467 35 253 m 789 1432 l 789 1246 l 602 1246 l 602 1432 l 789 1432 m 513 1432 l 513 1246 l 328 1246 l 328 1432 l 513 1432 z "},"Ý":{"ha":860,"x_min":-52,"x_max":914,"o":"m 914 1136 l 581 450 l 581 160 q 597 0 581 57 l 328 -171 q 292 -55 302 -113 q 282 79 282 3 l 282 450 l -52 1136 l 288 1136 l 432 797 l 575 1136 l 914 1136 m 675 1432 l 572 1210 l 376 1210 l 469 1432 l 675 1432 z "},"Þ":{"ha":971,"x_min":100,"x_max":950,"o":"m 100 0 l 100 1136 l 399 1136 l 399 435 q 514 494 458 456 q 608 578 571 531 q 646 669 646 625 q 612 748 646 717 q 512 779 577 779 l 435 779 l 435 1036 l 535 1036 q 764 995 671 1036 q 903 878 857 955 q 950 697 950 802 q 902 512 950 600 q 773 353 853 425 q 596 225 693 281 q 399 128 499 169 l 399 0 l 100 0 z "},"ß":{"ha":890,"x_min":79,"x_max":863,"o":"m 79 0 l 79 851 q 93 991 79 936 q 147 1085 108 1047 q 260 1142 187 1123 q 450 1161 333 1161 q 640 1141 561 1161 q 765 1064 718 1120 q 811 906 811 1007 q 772 776 811 850 q 667 632 732 702 q 732 561 698 601 q 795 471 765 520 q 844 368 825 422 q 863 261 863 314 q 847 159 863 206 q 796 76 831 112 q 705 20 761 40 q 569 0 648 0 l 453 0 l 385 228 q 443 227 407 227 q 537 241 510 227 q 564 290 564 256 q 504 433 564 343 q 361 612 444 523 q 430 692 395 652 q 492 777 466 733 q 518 860 518 821 q 499 899 518 879 q 435 920 480 920 q 376 906 395 920 q 350 865 356 892 q 345 789 345 838 l 345 0 l 79 0 z "},"à":{"ha":860,"x_min":28,"x_max":783,"o":"m 28 518 q 79 714 28 643 q 209 813 131 786 q 376 840 288 840 l 783 840 l 783 0 l 515 0 q 259 76 371 0 q 88 272 148 151 q 28 518 28 392 m 415 612 q 328 584 354 612 q 301 496 301 555 q 327 380 301 438 q 401 279 352 321 q 518 225 450 237 l 518 612 l 415 612 m 282 1134 l 488 1134 l 581 911 l 385 911 l 282 1134 z "},"á":{"ha":860,"x_min":28,"x_max":783,"o":"m 28 518 q 79 714 28 643 q 209 813 131 786 q 376 840 288 840 l 783 840 l 783 0 l 515 0 q 259 76 371 0 q 88 272 148 151 q 28 518 28 392 m 415 612 q 328 584 354 612 q 301 496 301 555 q 327 380 301 438 q 401 279 352 321 q 518 225 450 237 l 518 612 l 415 612 m 678 1134 l 575 911 l 379 911 l 472 1134 l 678 1134 z "},"â":{"ha":860,"x_min":28,"x_max":783,"o":"m 28 518 q 79 714 28 643 q 209 813 131 786 q 376 840 288 840 l 783 840 l 783 0 l 515 0 q 259 76 371 0 q 88 272 148 151 q 28 518 28 392 m 415 612 q 328 584 354 612 q 301 496 301 555 q 327 380 301 438 q 401 279 352 321 q 518 225 450 237 l 518 612 l 415 612 m 532 1134 l 668 920 l 478 920 l 427 1004 l 378 920 l 190 920 l 324 1134 l 532 1134 z "},"ã":{"ha":860,"x_min":28,"x_max":783,"o":"m 28 518 q 79 714 28 643 q 209 813 131 786 q 376 840 288 840 l 783 840 l 783 0 l 515 0 q 259 76 371 0 q 88 272 148 151 q 28 518 28 392 m 415 612 q 328 584 354 612 q 301 496 301 555 q 327 380 301 438 q 401 279 352 321 q 518 225 450 237 l 518 612 l 415 612 m 177 1025 q 239 1095 206 1066 q 327 1124 272 1124 q 399 1107 339 1124 q 431 1097 408 1104 q 468 1086 453 1089 q 495 1082 483 1082 q 575 1124 545 1082 l 675 1034 q 619 968 658 1002 q 529 933 581 933 q 490 938 510 933 q 437 954 470 943 q 386 969 404 964 q 350 974 368 974 q 277 933 303 974 l 177 1025 z "},"ä":{"ha":860,"x_min":28,"x_max":783,"o":"m 28 518 q 79 714 28 643 q 209 813 131 786 q 376 840 288 840 l 783 840 l 783 0 l 515 0 q 259 76 371 0 q 88 272 148 151 q 28 518 28 392 m 415 612 q 328 584 354 612 q 301 496 301 555 q 327 380 301 438 q 401 279 352 321 q 518 225 450 237 l 518 612 l 415 612 m 663 1134 l 663 947 l 475 947 l 475 1134 l 663 1134 m 386 1134 l 386 947 l 201 947 l 201 1134 l 386 1134 z "},"å":{"ha":860,"x_min":28,"x_max":783,"o":"m 28 518 q 79 714 28 643 q 209 813 131 786 q 376 840 288 840 l 783 840 l 783 0 l 515 0 q 259 76 371 0 q 88 272 148 151 q 28 518 28 392 m 415 612 q 328 584 354 612 q 301 496 301 555 q 327 380 301 438 q 401 279 352 321 q 518 225 450 237 l 518 612 l 415 612 m 319 982 q 340 1079 319 1032 q 397 1155 361 1126 q 475 1185 433 1185 q 549 1157 514 1185 q 606 1082 585 1129 q 627 982 627 1035 q 475 865 627 865 q 319 982 319 865 m 407 999 q 424 959 407 970 q 475 947 440 947 q 541 999 541 947 q 522 1065 541 1038 q 475 1093 504 1093 q 426 1065 445 1093 q 407 999 407 1037 z "},"æ":{"ha":1240,"x_min":28,"x_max":1218,"o":"m 28 518 q 52 663 28 592 q 154 787 77 733 q 376 840 232 840 l 933 840 q 1081 815 1017 840 q 1182 737 1145 790 q 1218 603 1218 684 q 1187 475 1218 535 q 1112 370 1157 415 q 1026 296 1066 325 q 939 239 985 268 q 1009 225 982 229 q 1096 222 1035 222 l 1201 222 l 1136 -5 l 974 -5 q 868 7 939 -5 q 751 54 798 20 l 751 0 l 515 0 q 311 47 402 0 q 156 173 219 95 q 60 342 93 251 q 28 518 28 433 m 432 612 q 329 584 357 612 q 301 498 301 555 q 323 389 301 448 q 394 284 345 331 q 518 225 443 238 l 518 612 l 432 612 m 751 390 q 888 481 829 431 q 947 575 947 532 q 928 606 947 596 q 863 615 909 615 q 735 492 735 615 q 751 390 735 444 z "},"ç":{"ha":640,"x_min":28,"x_max":626,"o":"m 325 43 q 169 157 237 83 q 65 325 102 231 q 28 518 28 419 q 78 712 28 640 q 207 812 129 784 q 376 840 284 840 l 546 840 l 610 612 l 435 612 q 367 605 395 612 q 320 573 339 598 q 301 496 301 547 q 330 373 301 437 q 412 268 359 310 q 532 225 466 225 l 626 225 l 558 0 l 515 0 q 436 5 492 0 l 436 -14 l 469 -14 q 515 -60 515 -14 l 515 -211 q 502 -266 515 -241 q 461 -290 489 -290 l 304 -290 l 304 -171 l 396 -171 l 396 -92 l 370 -92 q 325 -48 325 -92 l 325 43 z "},"è":{"ha":806,"x_min":28,"x_max":783,"o":"m 28 518 q 53 680 28 614 q 127 786 78 746 q 247 842 176 825 q 413 860 318 860 q 607 844 528 860 q 735 777 686 828 q 783 626 783 726 q 732 455 783 531 q 617 331 680 378 q 480 242 554 284 q 637 225 532 225 l 743 225 l 678 0 l 515 0 q 332 39 421 0 q 175 150 244 79 q 67 316 106 221 q 28 518 28 412 m 318 407 q 442 486 372 431 q 512 592 512 540 q 429 632 512 632 q 338 603 374 632 q 301 507 301 575 q 318 407 301 471 m 256 1134 l 461 1134 l 554 911 l 358 911 l 256 1134 z "},"é":{"ha":806,"x_min":28,"x_max":783,"o":"m 28 518 q 53 680 28 614 q 127 786 78 746 q 247 842 176 825 q 413 860 318 860 q 607 844 528 860 q 735 777 686 828 q 783 626 783 726 q 732 455 783 531 q 617 331 680 378 q 480 242 554 284 q 637 225 532 225 l 743 225 l 678 0 l 515 0 q 332 39 421 0 q 175 150 244 79 q 67 316 106 221 q 28 518 28 412 m 318 407 q 442 486 372 431 q 512 592 512 540 q 429 632 512 632 q 338 603 374 632 q 301 507 301 575 q 318 407 301 471 m 649 1134 l 546 911 l 350 911 l 443 1134 l 649 1134 z "},"ê":{"ha":806,"x_min":28,"x_max":783,"o":"m 28 518 q 53 680 28 614 q 127 786 78 746 q 247 842 176 825 q 413 860 318 860 q 607 844 528 860 q 735 777 686 828 q 783 626 783 726 q 732 455 783 531 q 617 331 680 378 q 480 242 554 284 q 637 225 532 225 l 743 225 l 678 0 l 515 0 q 332 39 421 0 q 175 150 244 79 q 67 316 106 221 q 28 518 28 412 m 318 407 q 442 486 372 431 q 512 592 512 540 q 429 632 512 632 q 338 603 374 632 q 301 507 301 575 q 318 407 301 471 m 507 1134 l 643 920 l 453 920 l 401 1004 l 353 920 l 165 920 l 299 1134 l 507 1134 z "},"ë":{"ha":806,"x_min":28,"x_max":783,"o":"m 28 518 q 53 680 28 614 q 127 786 78 746 q 247 842 176 825 q 413 860 318 860 q 607 844 528 860 q 735 777 686 828 q 783 626 783 726 q 732 455 783 531 q 617 331 680 378 q 480 242 554 284 q 637 225 532 225 l 743 225 l 678 0 l 515 0 q 332 39 421 0 q 175 150 244 79 q 67 316 106 221 q 28 518 28 412 m 318 407 q 442 486 372 431 q 512 592 512 540 q 429 632 512 632 q 338 603 374 632 q 301 507 301 575 q 318 407 301 471 m 635 1136 l 635 950 l 447 950 l 447 1136 l 635 1136 m 358 1136 l 358 950 l 174 950 l 174 1136 l 358 1136 z "},"ì":{"ha":418,"x_min":46,"x_max":345,"o":"m 342 840 l 342 0 l 76 0 l 76 840 l 342 840 m 46 1134 l 251 1134 l 345 911 l 149 911 l 46 1134 z "},"í":{"ha":418,"x_min":76,"x_max":439,"o":"m 342 840 l 342 0 l 76 0 l 76 840 l 342 840 m 439 1134 l 336 911 l 140 911 l 233 1134 l 439 1134 z "},"î":{"ha":418,"x_min":-31,"x_max":447,"o":"m 342 840 l 342 0 l 76 0 l 76 840 l 342 840 m 311 1134 l 447 920 l 257 920 l 205 1004 l 157 920 l -31 920 l 103 1134 l 311 1134 z "},"ï":{"ha":418,"x_min":-22,"x_max":439,"o":"m 342 840 l 342 0 l 76 0 l 76 840 l 342 840 m 439 1136 l 439 950 l 251 950 l 251 1136 l 439 1136 m 162 1136 l 162 950 l -22 950 l -22 1136 l 162 1136 z "},"ð":{"ha":890,"x_min":25,"x_max":828,"o":"m 424 214 q 480 254 449 214 q 532 363 510 294 q 553 515 553 433 q 521 589 553 568 q 424 610 490 610 q 326 589 355 610 q 296 515 296 569 q 317 362 296 432 q 368 253 337 293 q 424 214 398 214 m 600 1099 l 828 1158 l 828 1030 l 678 990 q 793 750 759 861 q 828 540 828 639 q 799 333 827 435 q 718 150 770 232 q 589 20 665 68 q 424 -28 514 -28 q 215 55 306 -28 q 74 271 124 139 q 25 543 25 404 q 34 637 27 597 q 71 725 40 677 q 174 806 102 773 q 367 839 246 839 l 480 839 q 435 925 471 868 l 185 860 l 185 987 l 364 1033 q 271 1133 314 1097 l 567 1133 l 600 1099 z "},"ñ":{"ha":860,"x_min":74,"x_max":789,"o":"m 472 840 q 640 821 575 840 q 748 732 706 802 q 789 518 789 661 l 789 0 l 521 0 l 521 478 q 515 560 521 534 q 484 599 509 586 q 404 612 460 612 l 342 612 l 342 0 l 74 0 l 74 840 l 472 840 m 171 1028 q 233 1098 200 1069 q 321 1126 266 1126 q 393 1110 333 1126 q 425 1099 402 1107 q 462 1088 447 1092 q 489 1085 477 1085 q 569 1126 539 1085 l 669 1036 q 614 971 652 1005 q 524 936 575 936 q 484 941 504 936 q 431 956 464 946 q 380 971 398 967 q 345 976 362 976 q 271 936 297 976 l 171 1028 z "},"ò":{"ha":860,"x_min":29,"x_max":833,"o":"m 29 540 q 54 683 29 622 q 123 783 78 744 q 232 841 169 822 q 372 860 295 860 l 492 860 q 736 786 638 860 q 833 540 833 712 q 790 293 833 426 q 655 68 746 161 q 432 -25 564 -25 q 224 56 316 -25 q 80 268 132 137 q 29 540 29 399 m 301 515 q 322 372 301 442 q 372 260 342 303 q 429 217 402 217 q 489 258 458 217 q 541 369 520 300 q 561 515 561 437 q 432 632 561 632 q 301 515 301 632 m 282 1134 l 488 1134 l 581 911 l 385 911 l 282 1134 z "},"ó":{"ha":860,"x_min":29,"x_max":833,"o":"m 29 540 q 54 683 29 622 q 123 783 78 744 q 232 841 169 822 q 372 860 295 860 l 492 860 q 736 786 638 860 q 833 540 833 712 q 790 293 833 426 q 655 68 746 161 q 432 -25 564 -25 q 224 56 316 -25 q 80 268 132 137 q 29 540 29 399 m 301 515 q 322 372 301 442 q 372 260 342 303 q 429 217 402 217 q 489 258 458 217 q 541 369 520 300 q 561 515 561 437 q 432 632 561 632 q 301 515 301 632 m 678 1134 l 575 911 l 379 911 l 472 1134 l 678 1134 z "},"ô":{"ha":860,"x_min":29,"x_max":833,"o":"m 29 540 q 54 683 29 622 q 123 783 78 744 q 232 841 169 822 q 372 860 295 860 l 492 860 q 736 786 638 860 q 833 540 833 712 q 790 293 833 426 q 655 68 746 161 q 432 -25 564 -25 q 224 56 316 -25 q 80 268 132 137 q 29 540 29 399 m 301 515 q 322 372 301 442 q 372 260 342 303 q 429 217 402 217 q 489 258 458 217 q 541 369 520 300 q 561 515 561 437 q 432 632 561 632 q 301 515 301 632 m 535 1134 l 671 920 l 480 920 l 429 1004 l 380 920 l 193 920 l 327 1134 l 535 1134 z "},"õ":{"ha":860,"x_min":29,"x_max":833,"o":"m 29 540 q 54 683 29 622 q 123 783 78 744 q 232 841 169 822 q 372 860 295 860 l 492 860 q 736 786 638 860 q 833 540 833 712 q 790 293 833 426 q 655 68 746 161 q 432 -25 564 -25 q 224 56 316 -25 q 80 268 132 137 q 29 540 29 399 m 301 515 q 322 372 301 442 q 372 260 342 303 q 429 217 402 217 q 489 258 458 217 q 541 369 520 300 q 561 515 561 437 q 432 632 561 632 q 301 515 301 632 m 185 1025 q 247 1095 214 1066 q 335 1124 280 1124 q 407 1107 347 1124 q 439 1097 416 1104 q 476 1086 461 1089 q 503 1082 491 1082 q 583 1124 553 1082 l 683 1034 q 627 968 666 1002 q 537 933 589 933 q 498 938 518 933 q 445 954 478 943 q 394 969 412 964 q 358 974 376 974 q 285 933 311 974 l 185 1025 z "},"ö":{"ha":860,"x_min":29,"x_max":833,"o":"m 29 540 q 54 683 29 622 q 123 783 78 744 q 232 841 169 822 q 372 860 295 860 l 492 860 q 736 786 638 860 q 833 540 833 712 q 790 293 833 426 q 655 68 746 161 q 432 -25 564 -25 q 224 56 316 -25 q 80 268 132 137 q 29 540 29 399 m 301 515 q 322 372 301 442 q 372 260 342 303 q 429 217 402 217 q 489 258 458 217 q 541 369 520 300 q 561 515 561 437 q 432 632 561 632 q 301 515 301 632 m 663 1139 l 663 953 l 475 953 l 475 1139 l 663 1139 m 386 1139 l 386 953 l 201 953 l 201 1139 l 386 1139 z "},"œ":{"ha":1310,"x_min":29,"x_max":1292,"o":"m 29 540 q 68 712 29 641 q 184 822 106 784 q 375 860 262 860 l 492 860 q 694 800 632 860 q 773 846 728 832 q 917 860 818 860 q 1114 841 1032 860 q 1244 772 1196 822 q 1292 635 1292 723 q 1233 454 1290 536 q 1106 319 1176 371 q 985 242 1036 267 q 1142 225 1049 225 l 1247 225 l 1183 0 l 1019 0 q 886 20 944 0 q 789 68 828 39 q 714 136 749 97 q 432 -25 599 -25 q 292 10 362 -25 q 161 117 221 46 q 65 296 101 189 q 29 540 29 404 m 301 515 q 322 368 301 437 q 373 256 342 299 q 432 214 404 214 q 490 262 460 216 q 539 379 519 309 q 558 518 558 450 q 528 605 558 578 q 429 632 497 632 q 301 515 301 632 m 822 407 q 962 502 909 453 q 1017 589 1015 550 q 936 632 1017 632 q 806 504 806 632 q 822 407 806 458 z "},"ø":{"ha":860,"x_min":11,"x_max":863,"o":"m 108 203 q 29 540 29 364 q 66 708 29 636 q 180 820 103 780 q 375 860 257 860 l 489 860 q 665 828 591 860 l 722 890 l 863 768 l 800 697 q 833 540 833 629 q 807 350 833 448 q 729 165 781 251 q 602 27 677 80 q 432 -25 526 -25 q 225 54 321 -25 l 149 -35 l 11 89 l 108 203 m 301 515 q 321 377 301 448 q 372 262 341 307 q 432 217 402 217 q 491 262 461 217 q 540 378 521 307 q 561 518 560 449 q 429 632 561 632 q 334 604 367 630 q 301 515 301 579 z "},"ù":{"ha":860,"x_min":29,"x_max":792,"o":"m 29 350 q 50 509 29 427 q 93 652 70 591 q 171 840 117 712 l 445 840 q 402 724 433 807 q 354 587 371 641 q 324 477 336 532 q 313 370 313 421 q 333 274 313 306 q 390 234 353 243 q 496 225 428 225 l 526 225 l 526 840 l 792 840 l 792 0 l 367 0 q 29 350 29 0 m 282 1134 l 488 1134 l 581 911 l 385 911 l 282 1134 z "},"ú":{"ha":860,"x_min":29,"x_max":792,"o":"m 29 350 q 50 509 29 427 q 93 652 70 591 q 171 840 117 712 l 445 840 q 402 724 433 807 q 354 587 371 641 q 324 477 336 532 q 313 370 313 421 q 333 274 313 306 q 390 234 353 243 q 496 225 428 225 l 526 225 l 526 840 l 792 840 l 792 0 l 367 0 q 29 350 29 0 m 678 1134 l 575 911 l 379 911 l 472 1134 l 678 1134 z "},"û":{"ha":860,"x_min":29,"x_max":792,"o":"m 29 350 q 50 509 29 427 q 93 652 70 591 q 171 840 117 712 l 445 840 q 402 724 433 807 q 354 587 371 641 q 324 477 336 532 q 313 370 313 421 q 333 274 313 306 q 390 234 353 243 q 496 225 428 225 l 526 225 l 526 840 l 792 840 l 792 0 l 367 0 q 29 350 29 0 m 553 1134 l 689 920 l 498 920 l 447 1004 l 398 920 l 211 920 l 345 1134 l 553 1134 z "},"ü":{"ha":860,"x_min":29,"x_max":792,"o":"m 29 350 q 50 509 29 427 q 93 652 70 591 q 171 840 117 712 l 445 840 q 402 724 433 807 q 354 587 371 641 q 324 477 336 532 q 313 370 313 421 q 333 274 313 306 q 390 234 353 243 q 496 225 428 225 l 526 225 l 526 840 l 792 840 l 792 0 l 367 0 q 29 350 29 0 m 675 1136 l 675 950 l 488 950 l 488 1136 l 675 1136 m 399 1136 l 399 950 l 214 950 l 214 1136 l 399 1136 z "},"ý":{"ha":779,"x_min":-38,"x_max":817,"o":"m 817 840 l 418 -290 l 131 -290 l 261 74 l -38 840 l 276 840 l 399 442 l 401 442 l 524 840 l 817 840 m 635 1134 l 532 911 l 336 911 l 429 1134 l 635 1134 z "},"þ":{"ha":860,"x_min":100,"x_max":950,"o":"m 100 0 l 100 1136 l 399 1136 l 399 435 q 514 494 458 456 q 608 578 571 531 q 646 669 646 625 q 612 748 646 717 q 512 779 577 779 l 435 779 l 435 1036 l 535 1036 q 764 995 671 1036 q 903 878 857 955 q 950 697 950 802 q 902 512 950 600 q 773 353 853 425 q 596 225 693 281 q 399 128 499 169 l 399 0 l 100 0 z "},"ÿ":{"ha":779,"x_min":-38,"x_max":817,"o":"m 817 840 l 418 -290 l 131 -290 l 261 74 l -38 840 l 276 840 l 399 442 l 401 442 l 524 840 l 817 840 m 618 1136 l 618 950 l 431 950 l 431 1136 l 618 1136 m 342 1136 l 342 950 l 157 950 l 157 1136 l 342 1136 z "}}}
